<svg xmlns="http://www.w3.org/2000/svg" viewBox="0 0 246.67 50.4"><defs><style>.cls-1{fill:#003671;}</style></defs><g id="Ebene_2" data-name="Ebene 2"><g id="Ebene_1-2" data-name="Ebene 1"><path class="cls-1" d="M6.48,11.09H14.9V60.91H6.48ZM15,34.34l16.2-23.25H41.4L24.12,34.2,42.55,60.91H31.75Z" transform="translate(-6.48 -11.09)"/><path class="cls-1" d="M67.46,51.55H54.14l-3.31,9.36H42.41L56.88,21.82h8.86L79.56,60.91H70.85ZM56.09,45.43h9.65L61,28.8Z" transform="translate(-6.48 -11.09)"/><path class="cls-1" d="M96.48,28.44V60.91H88.34V28.44H77.62V22h30.81l-1.37,6.48Z" transform="translate(-6.48 -11.09)"/><path class="cls-1" d="M130.1,51.55H116.78l-3.31,9.36h-8.42l14.47-39.09h8.86L142.2,60.91h-8.71Zm-11.37-6.12h9.65L123.62,28.8Z" transform="translate(-6.48 -11.09)"/><path class="cls-1" d="M148.54,60.91V22h8.13V54.29h15.84L171,60.91Z" transform="translate(-6.48 -11.09)"/><path class="cls-1" d="M210.53,49.46a18.12,18.12,0,0,1-3.28,6.38A14.44,14.44,0,0,1,201.63,60a20.59,20.59,0,0,1-8.17,1.48,21,21,0,0,1-8-1.44,15.78,15.78,0,0,1-5.86-4.11,18.19,18.19,0,0,1-3.64-6.3,24.59,24.59,0,0,1-1.26-8.1q0-9.57,4.86-14.86t13.57-5.3a20.53,20.53,0,0,1,8.07,1.48A15.82,15.82,0,0,1,207,27a17.3,17.3,0,0,1,3.49,6.3,26.4,26.4,0,0,1,1.16,8A28.72,28.72,0,0,1,210.53,49.46ZM202.1,36.61A14,14,0,0,0,200.84,32,8.13,8.13,0,0,0,198,28.76a9.06,9.06,0,0,0-5.07-1.26A8.27,8.27,0,0,0,188,28.8a8.49,8.49,0,0,0-2.81,3.31,14,14,0,0,0-1.26,4.5,42.76,42.76,0,0,0-.29,4.86,47,47,0,0,0,.29,5.22,13.91,13.91,0,0,0,1.26,4.57,7.77,7.77,0,0,0,2.88,3.24,9.41,9.41,0,0,0,5.15,1.23,8.17,8.17,0,0,0,4.89-1.3,8.4,8.4,0,0,0,2.74-3.31,14.71,14.71,0,0,0,1.22-4.54,43.55,43.55,0,0,0,.29-4.89A45.94,45.94,0,0,0,202.1,36.61Z" transform="translate(-6.48 -11.09)"/><path class="cls-1" d="M239.29,61.34a22.15,22.15,0,0,1-8.45-1.44,17.26,17.26,0,0,1-6.14-4.32A17,17,0,0,1,221,49.5a24.2,24.2,0,0,1-1.15-7.88,23,23,0,0,1,1.94-9.94,17.79,17.79,0,0,1,5.82-6.91,19,19,0,0,1,11.49-3.39,22,22,0,0,1,13.51,4.32l-4.17,5a20.54,20.54,0,0,0-4.3-2.23,14.07,14.07,0,0,0-4.88-.79,10.54,10.54,0,0,0-5.42,1.22,8.54,8.54,0,0,0-3.16,3.24,13.08,13.08,0,0,0-1.47,4.61,39.28,39.28,0,0,0-.36,5.4,26.89,26.89,0,0,0,.5,5.33,11.21,11.21,0,0,0,1.77,4.25,8.81,8.81,0,0,0,3.31,2.84,13.21,13.21,0,0,0,8,.72,18.87,18.87,0,0,0,2.37-.76V45.65H238l-1.15-6.48h16.34V58A29.12,29.12,0,0,1,239.29,61.34Z" transform="translate(-6.48 -11.09)"/></g></g></svg>