<?xml version="1.0" encoding="UTF-8"?>
<svg id="Ebene_2" xmlns="http://www.w3.org/2000/svg" xmlns:xlink="http://www.w3.org/1999/xlink" viewBox="0 0 688 1042">
  <defs>
    <style>
      .cls-1 {
        fill: none;
      }

      .cls-2 {
        fill: url(#linear-gradient-3);
      }

      .cls-3 {
        fill: url(#linear-gradient-2);
      }

      .cls-4 {
        clip-path: url(#clippath-1);
      }

      .cls-5 {
        clip-path: url(#clippath-2);
      }

      .cls-6 {
        fill: #fff;
      }

      .cls-7 {
        fill: url(#linear-gradient);
        filter: url(#drop-shadow-1);
      }

      .cls-8 {
        clip-path: url(#clippath);
      }
    </style>
    <clipPath id="clippath">
      <path class="cls-1" d="M495.11,721.95c-6.07,44.24-31.79,83.37-69.98,106.5-45.88,27.84-103.44,27.84-149.32,0-35.78-21.62-60.84-57.25-69.08-98.23-.9-6.48-1.8-12.95-2.34-19.43-1.44-14.11-2.16-28.28-2.16-42.46-.7-131.57,64.03-254.89,172.71-329.05-15.24,24.41-27.9,50.34-37.78,77.36-5.59,15.5-10.09,31.37-13.49,47.5-6.48,28.82-9.74,58.26-9.71,87.79v4.68c.38,25.37,3.03,50.66,7.92,75.56,4.91,26.37,30.27,43.77,56.64,38.87,21.98-4.09,38.33-22.66,39.61-44.98,0-7.92,1.08-15.47,1.08-23.93,0-11.13-.72-22.25-2.16-33.28-3.02-22.42-9.08-44.33-17.99-65.13,55.37,42.64,90.19,106.66,95.89,176.31,0,6.84.9,13.85.9,20.87s-.9,13.85-.9,21.05"/>
    </clipPath>
    <clipPath id="clippath-1">
      <path class="cls-1" d="M495.11,721.95c-6.07,44.24-31.79,83.37-69.98,106.5-45.88,27.84-103.44,27.84-149.32,0-35.78-21.62-60.84-57.25-69.08-98.23-.9-6.48-1.8-12.95-2.34-19.43-1.44-14.11-2.16-28.28-2.16-42.46-.7-131.57,64.03-254.89,172.71-329.05-15.24,24.41-27.9,50.34-37.78,77.36-5.59,15.5-10.09,31.37-13.49,47.5-6.48,28.82-9.74,58.26-9.71,87.79v4.68c.38,25.37,3.03,50.66,7.92,75.56,4.91,26.37,30.27,43.77,56.64,38.87,21.98-4.09,38.33-22.66,39.61-44.98,0-7.92,1.08-15.47,1.08-23.93,0-11.13-.72-22.25-2.16-33.28-3.02-22.42-9.08-44.33-17.99-65.13,55.37,42.64,90.19,106.66,95.89,176.31,0,6.84.9,13.85.9,20.87s-.9,13.85-.9,21.05"/>
    </clipPath>
    <clipPath id="clippath-2">
      <path class="cls-1" d="M495.11,721.95c-6.07,44.24-31.79,83.37-69.98,106.5-45.88,27.84-103.44,27.84-149.32,0-35.78-21.62-60.84-57.25-69.08-98.23-.9-6.48-1.8-12.95-2.34-19.43-1.44-14.11-2.16-28.28-2.16-42.46-.7-131.57,64.03-254.89,172.71-329.05-15.24,24.41-27.9,50.34-37.78,77.36-5.59,15.5-10.09,31.37-13.49,47.5-6.48,28.82-9.74,58.26-9.71,87.79v4.68c.38,25.37,3.03,50.66,7.92,75.56,4.91,26.37,30.27,43.77,56.64,38.87,21.98-4.09,38.33-22.66,39.61-44.98,0-7.92,1.08-15.47,1.08-23.93,0-11.13-.72-22.25-2.16-33.28-3.02-22.42-9.08-44.33-17.99-65.13,55.37,42.64,90.19,106.66,95.89,176.31,0,6.84.9,13.85.9,20.87s-.9,13.85-.9,21.05"/>
    </clipPath>
    <linearGradient id="linear-gradient" x1="349.67" y1="1017.34" x2="349.67" y2="36.48" gradientTransform="translate(-5.7 1047.73) scale(1 -1)" gradientUnits="userSpaceOnUse">
      <stop offset="0" stop-color="#b5f455"/>
      <stop offset="1" stop-color="#439422"/>
    </linearGradient>
    <filter id="drop-shadow-1" x="0" y="0" width="688" height="1042" filterUnits="userSpaceOnUse">
      <feOffset dx="0" dy="0"/>
      <feGaussianBlur result="blur" stdDeviation="10"/>
      <feFlood flood-color="#000" flood-opacity=".9"/>
      <feComposite in2="blur" operator="in"/>
      <feComposite in="SourceGraphic"/>
    </filter>
    <linearGradient id="linear-gradient-2" x1="202.7" y1="456.22" x2="499.19" y2="456.22" xlink:href="#linear-gradient"/>
    <linearGradient id="linear-gradient-3" x1="202.7" y1="456.22" x2="499.19" y2="456.22" xlink:href="#linear-gradient"/>
  </defs>
  <g id="green-flame-icon">
    <g>
      <g class="cls-8">
        <rect class="cls-6" x="162.28" y="299.53" width="373.85" height="589.73"/>
      </g>
      <g class="cls-4">
        <rect class="cls-6" x="162.28" y="299.53" width="373.85" height="589.73"/>
      </g>
      <g class="cls-5">
        <rect class="cls-6" x="162.28" y="299.53" width="373.85" height="589.73"/>
      </g>
      <path id="Mask" class="cls-7" d="M343.88,30.57S30.49,511.46,30.49,696.04c-2.19,171.88,135.37,312.99,307.25,315.18,2.05.03,4.1.03,6.15.02,171.99,1.2,312.39-137.24,313.59-309.23.01-1.99,0-3.98-.02-5.97,0-183.86-313.58-665.66-313.58-665.66"/>
      <g id="Path-Copy-4">
        <path id="path-3" class="cls-3" d="M492.59,718.89c-6.21,44.38-32.22,83.55-70.7,106.5-46.41,27.81-104.36,27.81-150.76,0-35.92-21.45-61.13-57.05-69.44-98.05-.9-6.48-1.8-12.95-2.52-19.43h0c-1.45-13.93-2.17-27.92-2.16-41.92-.14-76.09,21.66-150.61,62.79-214.63,13.4-20.85,28.76-40.36,45.88-58.29,19.93-21.14,42.14-40.03,66.21-56.31-15.46,24.47-28.24,50.52-38.14,77.72-5.6,15.47-10.22,31.27-13.85,47.32-6.44,28.88-9.69,58.38-9.71,87.97v4.68c.3,25.45,3.02,50.81,8.1,75.74h0c6.7,26.39,33.52,42.35,59.91,35.65,19.96-5.07,34.67-22.01,36.88-42.49h0c0-7.74,1.08-15.83,1.08-23.93.4-11.35.04-22.71-1.08-34-2.97-22.38-9.02-44.23-17.99-64.95,55.3,42.39,90.12,106.16,95.89,175.59,0,7.02.9,14.03.9,21.05s0,14.03-.9,21.05"/>
        <path id="path-3-2" class="cls-2" d="M492.59,718.89c-6.21,44.38-32.22,83.55-70.7,106.5-46.41,27.81-104.36,27.81-150.76,0-35.92-21.45-61.13-57.05-69.44-98.05-.9-6.48-1.8-12.95-2.52-19.43h0c-1.45-13.93-2.17-27.92-2.16-41.92-.14-76.09,21.66-150.61,62.79-214.63,13.4-20.85,28.76-40.36,45.88-58.29,19.93-21.14,42.14-40.03,66.21-56.31-15.46,24.47-28.24,50.52-38.14,77.72-5.6,15.47-10.22,31.27-13.85,47.32-6.44,28.88-9.69,58.38-9.71,87.97v4.68c.3,25.45,3.02,50.81,8.1,75.74h0c6.7,26.39,33.52,42.35,59.91,35.65,19.96-5.07,34.67-22.01,36.88-42.49h0c0-7.74,1.08-15.83,1.08-23.93.4-11.35.04-22.71-1.08-34-2.97-22.38-9.02-44.23-17.99-64.95,55.3,42.39,90.12,106.16,95.89,175.59,0,7.02.9,14.03.9,21.05s0,14.03-.9,21.05"/>
        <path id="path-3-3" class="cls-6" d="M492.59,718.89c-6.21,44.38-32.22,83.55-70.7,106.5-46.41,27.81-104.36,27.81-150.76,0-35.92-21.45-61.13-57.05-69.44-98.05-.9-6.48-1.8-12.95-2.52-19.43h0c-1.45-13.93-2.17-27.92-2.16-41.92-.14-76.09,21.66-150.61,62.79-214.63,13.4-20.85,28.76-40.36,45.88-58.29,19.93-21.14,42.14-40.03,66.21-56.31-15.46,24.47-28.24,50.52-38.14,77.72-5.6,15.47-10.22,31.27-13.85,47.32-6.44,28.88-9.69,58.38-9.71,87.97v4.68c.3,25.45,3.02,50.81,8.1,75.74h0c6.7,26.39,33.52,42.35,59.91,35.65,19.96-5.07,34.67-22.01,36.88-42.49h0c0-7.74,1.08-15.83,1.08-23.93.4-11.35.04-22.71-1.08-34-2.97-22.38-9.02-44.23-17.99-64.95,55.3,42.39,90.12,106.16,95.89,175.59,0,7.02.9,14.03.9,21.05s0,14.03-.9,21.05"/>
      </g>
    </g>
  </g>
</svg>